<svg xmlns="http://www.w3.org/2000/svg" viewBox="0 0 256 256"><defs><linearGradient id="bg" x1="0" y1="0" x2="1" y2="1"><stop offset="0" stop-color="#123d9a"/><stop offset=".55" stop-color="#061945"/><stop offset="1" stop-color="#00091f"/></linearGradient><linearGradient id="face" x1="0" y1="0" x2="1" y2="1"><stop offset="0" stop-color="#fff"/><stop offset="1" stop-color="#9bbcf0"/></linearGradient><filter id="shadow"><feDropShadow dx="0" dy="7" stdDeviation="6" flood-opacity=".35"/></filter></defs><rect width="256" height="256" fill="#000"/><rect x="17" y="17" width="222" height="222" rx="47" fill="url(#bg)" stroke="#0d4fd8" stroke-width="1.5"/><g filter="url(#shadow)"><path fill="url(#face)" d="M70 75c0-15 12-27 27-27h62c15 0 27 12 27 27v55c0 15-12 27-27 27h-28l-16 14c-4 4-9 1-9-4v-10h-9c-15 0-27-12-27-27z"/><rect x="88" y="91" width="80" height="34" rx="15" fill="#06163d"/><circle cx="108" cy="108" r="5.5" fill="#eaf4ff"/><circle cx="148" cy="108" r="5.5" fill="#eaf4ff"/><rect x="112" y="135" width="32" height="6" rx="3" fill="#06163d"/></g></svg>